<?xml version="1.0" encoding="UTF-8" standalone="no"?>
<!DOCTYPE svg PUBLIC "-//W3C//DTD SVG 1.1//EN" "http://www.w3.org/Graphics/SVG/1.1/DTD/svg11.dtd">
<svg width="100%" height="100%" viewBox="0 0 827 168" version="1.1" xmlns="http://www.w3.org/2000/svg" xmlns:xlink="http://www.w3.org/1999/xlink" xml:space="preserve" xmlns:serif="http://www.serif.com/" style="fill-rule:evenodd;clip-rule:evenodd;stroke-linejoin:round;stroke-miterlimit:2;">
    <path id="Char10" d="M757.52,121.68C750.66,118.01 745.26,112.77 741.33,105.96C737.4,99.15 735.43,91.18 735.43,82.07C735.43,72.96 737.42,65.12 741.4,58.25C745.38,51.39 750.83,46.12 757.75,42.45C764.67,38.78 772.42,36.95 781.02,36.95C789.62,36.95 797.37,38.78 804.29,42.45C811.2,46.12 816.65,51.39 820.64,58.25C824.62,65.12 826.62,73.05 826.62,82.07C826.62,91.09 824.6,99.02 820.57,105.89C816.53,112.76 811.03,118.02 804.06,121.69C797.09,125.36 789.31,127.19 780.71,127.19C772.11,127.19 764.39,125.36 757.52,121.69L757.52,121.68ZM793.83,98.25C797.44,94.48 799.25,89.08 799.25,82.06C799.25,75.04 797.49,69.64 793.98,65.87C790.47,62.1 786.14,60.21 781.01,60.21C775.88,60.21 771.42,62.07 767.96,65.79C764.5,69.51 762.77,74.93 762.77,82.06C762.77,89.19 764.47,94.48 767.88,98.25C771.28,102.02 775.56,103.91 780.69,103.91C785.82,103.91 790.2,102.02 793.82,98.25L793.83,98.25Z" style="fill-rule:nonzero;"/>
    <path id="Char9" d="M698.88,24.92C695.89,22.14 694.4,18.71 694.4,14.62C694.4,10.53 695.89,6.94 698.88,4.17C701.87,1.39 705.72,0 710.44,0C715.16,0 718.85,1.39 721.84,4.17C724.83,6.95 726.32,10.43 726.32,14.62C726.32,18.81 724.83,22.14 721.84,24.92C718.85,27.7 715.05,29.09 710.44,29.09C705.83,29.09 701.87,27.7 698.88,24.92ZM723.8,38.2L723.8,125.92L696.92,125.92L696.92,38.2L723.8,38.2Z" style="fill-rule:nonzero;"/>
    <path id="Char8" d="M656.12,123.01C653.14,120.23 651.64,116.8 651.64,112.71C651.64,108.62 653.13,105.01 656.12,102.18C659.11,99.35 662.96,97.94 667.68,97.94C672.4,97.94 676.09,99.35 679.08,102.18C682.06,105.01 683.56,108.52 683.56,112.71C683.56,116.9 682.07,120.23 679.08,123.01C676.09,125.79 672.29,127.18 667.68,127.18C663.07,127.18 659.11,125.79 656.12,123.01Z" style="fill-rule:nonzero;"/>
    <path id="Char7" d="M591.02,60.38C580.96,60.38 571.84,67.92 571.84,81.91C571.84,95.9 580.96,103.76 591.02,103.76C601.08,103.76 610.2,96.06 610.2,82.07C610.2,68.08 601.24,60.38 591.02,60.38ZM583.16,36.96C596.21,36.96 605.48,42.93 610.2,50.63L610.2,38.21L637.08,38.21L637.08,125.92L610.2,125.92L610.2,113.5C605.33,121.2 596.05,127.17 583.01,127.17C561.64,127.17 544.5,109.57 544.5,81.9C544.5,54.23 561.63,36.95 583.17,36.95L583.16,36.96Z" style="fill-rule:nonzero;"/>
    <path id="Char6" d="M490.26,60.54L479.57,60.54L479.57,38.22L490.26,38.22L490.26,16.85L517.14,16.85L517.14,38.22L534.74,38.22L534.74,60.54L517.14,60.54L517.14,95.75C517.14,100.94 519.34,103.14 525.31,103.14L534.9,103.14L534.9,125.93L521.22,125.93C502.99,125.93 490.25,118.23 490.25,95.44L490.25,60.55L490.26,60.54Z" style="fill-rule:nonzero;"/>
    <path id="Char5" d="M466.68,125.93L439.8,125.93L439.8,113.99C434.46,121.53 425.03,126.88 413.24,126.88C392.96,126.88 379.29,112.89 379.29,89.47L379.29,38.23L406.01,38.23L406.01,85.85C406.01,97.8 412.77,104.4 422.83,104.4C432.89,104.4 439.8,97.8 439.8,85.85L439.8,38.23L466.68,38.23L466.68,125.94L466.68,125.93Z" style="fill-rule:nonzero;"/>
    <path id="Char4" d="M341.25,38.22L370.33,38.22L315.32,167.58L286.39,167.58L306.51,122.94L270.83,38.22L300.85,38.22L321.13,93.07L341.25,38.22Z" style="fill-rule:nonzero;"/>
    <path id="Char3" d="M219.9,60.38C209.84,60.38 200.72,68.08 200.72,82.07C200.72,96.06 209.84,103.76 219.9,103.76C229.96,103.76 239.23,95.9 239.23,81.91C239.23,67.92 230.12,60.38 219.9,60.38ZM227.92,36.96C249.46,36.96 266.59,54.25 266.59,81.91C266.59,109.57 249.46,127.18 227.92,127.18C215.03,127.18 205.76,121.05 200.89,113.67L200.89,167.74L174.01,167.74L174.01,38.22L200.89,38.22L200.89,50.64C205.76,42.94 215.04,36.97 227.92,36.97L227.92,36.96Z" style="fill-rule:nonzero;"/>
    <path id="Char2" d="M108.46,60.38C98.4,60.38 89.28,67.92 89.28,81.91C89.28,95.9 98.4,103.76 108.46,103.76C118.52,103.76 127.63,96.06 127.63,82.07C127.63,68.08 118.67,60.38 108.46,60.38ZM100.6,36.96C113.64,36.96 122.92,42.93 127.63,50.63L127.63,38.21L154.51,38.21L154.51,125.92L127.63,125.92L127.63,113.5C122.76,121.2 113.49,127.17 100.44,127.17C79.06,127.17 61.93,109.57 61.93,81.9C61.93,54.23 79.06,36.95 100.6,36.95L100.6,36.96Z" style="fill-rule:nonzero;"/>
    <path id="Char1" d="M26.88,125.93L0,125.93L0,38.22L26.88,38.22L26.88,52.84C33.01,43.57 42.6,37.28 54.39,37.28L54.39,65.73L47,65.73C34.27,65.73 26.88,70.13 26.88,85.22L26.88,125.93Z" style="fill-rule:nonzero;"/>
</svg>
